<svg id="Livello_1" data-name="Livello 1" xmlns="http://www.w3.org/2000/svg" viewBox="0 0 257.47 183.89"><defs><style>.cls-1{fill:#ac8311;}</style></defs><path class="cls-1" d="M50.61,105.37l-.87,3a10.34,10.34,0,0,1-.55-1.77C49.17,106.47,49.64,106.22,50.61,105.37Z"/><path class="cls-1" d="M256.19,114.6l.88-1,.4.4-1,.88Z"/><path class="cls-1" d="M256.32,162.59l-.85,1-.41-1Z"/><path class="cls-1" d="M1.28,169,.4,170l-.4-.4,1-.88Z"/><path class="cls-1" d="M186.67,103.38H122.1c-4-1.95-4.92-6-5.77-9.46-1.47-5.9-3.85-11.48-5.46-17.31-1-3.7-1.7-7.57-3.51-11.12-1.66-3.26-2.53-6.92-3.7-10.43-1.22-3.69-2.49-7.37-3.52-11.12a36,36,0,0,1-.64-5.61c4.74-3.54,9.38-7.07,14.09-10.52,5.31-3.9,10.69-7.7,16-11.59C136.06,11.5,142.44,6.68,148.94,2c3.83-2.74,6.4-2.68,10.31.18,8.24,6,16.36,12.22,24.63,18.21,6.44,4.66,13.05,9.1,19.53,13.72,1.67,1.19,3.15,2.65,4.53,3.83,1.67,4.9-1,8.95-2.35,12.88-3,8.84-5.93,17.69-8.65,26.62-2.05,6.7-4.05,13.42-6.4,20C189.77,99.65,188,101.48,186.67,103.38Zm-40.12-44-.25-.24-1,.88.4.39a3.59,3.59,0,0,0,.75-1.14,4,4,0,0,1,1.36-1c2.45-3.2,4.92-6.25,7.2-9.43s4.59-6.79,7-10.37c-8.69-1.06-22.69-.89-23,.21l2.35,1c-1.34,3.62-2.68,6.85-3.74,10.17s-4.1,6.6-2.23,10.14c4-1,7.94-2,11.87-3a5.68,5.68,0,0,1,.43,1A6.21,6.21,0,0,0,146.55,59.4ZM124.94,89.52l-1.26,1.26h-1.26c-.48-1.24,1.17-3.19-1.73-3.22.65-3.79,1.22-7,1.72-10.11.53-3.35,1-6.71,1.52-10.18-4.52-4-8.84-7.9-13.19-11.74-.07-.06-.35.12-.66.24,3.47,10.41,7,20.82,11.07,31.23.49,1.24-1.17,3.19,1.27,3.78l.41,1,.85-1,1.26-1.26c.43-.42.85-.84.83.06,4.45-6.09,8.14-11.11,11.78-16.17.15-.21-.13-.74-.22-1.21-1,.32-2.06,1-3,.87a15.37,15.37,0,0,1-3.6-1.26l-2,2c.79,5-1.53,9.6-2.45,14.41ZM149,8.9l-1.27,1.26c-2-.2-3.29.53-3.79,2.52-4.54,1.66-7.93,5.13-11.92,7.66-5.56,3.54-10.66,7.8-16,11.76l2.05,2c4.52-.41,9.12.22,13.85-1.1,3.71-1,7.94,0,11.92-.25,3.83-.2,7.63-.91,11.46-1.18,2.87-.19,5.77,0,9.5,0-2.31-9.62-8-17-11.62-26l-1.68,2.08C150.51,7.83,149.05,7,149,8.9Zm10.1,45.35c-1.89.11-1.07,1.57-1.26,2.52L156.53,58c-.36.15-.87.19-1.06.46-3.68,5.23-7,10.72-11.54,15.33-.31.32,0,1.22,0,1.85-.36.14-.83.19-1,.45-4.12,4.91-7.06,10.68-11.52,15.35-1.27,1.32-1.84,3.29-2.8,5.08,8.36.93,50.11.75,54.76-.25a26.81,26.81,0,0,1-1.46-3.21c-.34-1.12-.31-2.37-.62-3.51-1.46-5.25-3.33-10.41-4.38-15.74-1.47-7.5-4-14.7-5.79-22.1,0-.05-.4,0-.61,0,.45-3.26-1-6-2.16-9.65-3.6,3-5.46,6.62-7.92,9.68-.2.25,0,.81,0,1.23ZM108.52,44.8l14.31,14.28h4c2.53-6.45,4.94-12.57,7.27-18.5l3.31-.6a73.9,73.9,0,0,0-15.67-.79c-5.24.28-10.45,1.05-15.66,1.61-.21,2.26-.75,4.54,2.23,5.83Zm92.22-3.15c-.54-.42-1.05-1.15-1.63-1.21-4.86-.5-9.84-.38-14.54-1.49a26.83,26.83,0,0,0-9.36-.86c2.12,16,7.24,31.05,10.69,46.38h2.85c3-8.85,6.09-17.63,8.82-26.52,1.26-4.1,3.75-7.94,3.17-12.52C202.47,44.17,202.47,42.92,200.74,41.65Zm-10-11c-8.22-5.75-16.1-11.86-25-17.09,0,3.49,3.07,11.31,6.08,16.3,2.92.6,5.76,2.37,9.1,1.72C184,31,187.31,35.32,190.72,30.64ZM139.89,69.49l1.9-4.1-4.32,2.09Z"/><path class="cls-1" d="M223.67,102.85c-.44,1.53-.65,2.29-.87,3.05a10.3,10.3,0,0,1-.54-1.77C222.23,104,222.71,103.7,223.67,102.85Z"/><path class="cls-1" d="M120.94,178.3l.89-3.12a10.62,10.62,0,0,1,.55,1.77C122.4,177.13,121.93,177.39,120.94,178.3Z"/><path class="cls-1" d="M222.08,115.86l.88-1,.4.4-1,.88Z"/><path class="cls-1" d="M108.39,113.34l.88-1,.4.4-1,.88Z"/><path class="cls-1" d="M108.39,107.05l.88-1,.4.39-1,.88Z"/><path class="cls-1" d="M67,166.48l-.88,1-.4-.4,1-.88Z"/><path class="cls-1" d="M181.9,171.27l1,.88-.4.4-.88-1Z"/><path class="cls-1" d="M169.16,173.92l-.85,1.05-.42-1.05Z"/><path class="cls-1" d="M163,179.08l-.88,1-.4-.4,1-.88Z"/><path class="cls-1" d="M156.66,182.86l-.88,1-.4-.4,1-.88Z"/><path class="cls-1" d="M146.53,74.26l33.53,21.35h-9.93L142.77,78.84C144.2,77.7,143.78,75.15,146.53,74.26Z"/><path class="cls-1" d="M159.05,54.25,160.31,53c2.33-2.15,5.42-2.66,7.95-3.94l2.16,2.68v3.4c-3.83,1.36-7.74,2.82-11.72,4.11-.78.25-2.17.47-2.17-1.21l1.26-1.26C159.68,56.66,158.86,55.21,159.05,54.25Z"/><path class="cls-1" d="M200.74,41.65v3.78c-3.07-.08-5.63,1.36-8.39,2.43-3.95,1.54-8.15,2.46-12.64,3.77l-2.08-5.43C185.42,43.37,192.73,40.68,200.74,41.65Z"/><path class="cls-1" d="M147.68,10.16,149,8.9c1-.19,2.41.63,2.52-1.26,2.29.55,1.39,2.24,1,3.38-2.44,6.71-5,13.37-7.67,20.32h-6.24a64.41,64.41,0,0,1,5.36-13.45V12.68C145.85,12.88,147.19,12.15,147.68,10.16Z"/><path class="cls-1" d="M108.41,44.31l-1-.88.39-.4.88,1Z"/></svg>